PathFileType	4	(X/Y/Z)	s08c0101.trc
DataRate	CameraRate	NumFrames	NumMarkers	Units	OrigDataRate	OrigDataStartFrame	OrigNumFrames
200	200	7	50	mm	200	1500	2000
Frame#	Time	racr			lacr			c7			jug			rlel			rdr			llel			ldr			s2			lic			ric			lasi			rasi			rpsi			lpsi			rgt			lgt			rth1			rth2			rth3			rth4			rlfc			rmfc			rsh1			rsh2			rsh3			rsh4			rlmal			rmmal			rcal			rtoe			rmt5			lth1			lth2			lth4			lth3			llfc			lmfc			llmal			lmmal			lcal			lmt5			lsh1			lsh2			lsh3			lsh4			ltoe			SBIKE			LBIKE			RBIKE			
		X1	Y1	Z1	X2	Y2	Z2	X3	Y3	Z3	X4	Y4	Z4	X5	Y5	Z5	X6	Y6	Z6	X7	Y7	Z7	X8	Y8	Z8	X9	Y9	Z9	X10	Y10	Z10	X11	Y11	Z11	X12	Y12	Z12	X13	Y13	Z13	X14	Y14	Z14	X15	Y15	Z15	X16	Y16	Z16	X17	Y17	Z17	X18	Y18	Z18	X19	Y19	Z19	X20	Y20	Z20	X21	Y21	Z21	X22	Y22	Z22	X23	Y23	Z23	X24	Y24	Z24	X25	Y25	Z25	X26	Y26	Z26	X27	Y27	Z27	X28	Y28	Z28	X29	Y29	Z29	X30	Y30	Z30	X31	Y31	Z31	X32	Y32	Z32	X33	Y33	Z33	X34	Y34	Z34	X35	Y35	Z35	X36	Y36	Z36	X37	Y37	Z37	X38	Y38	Z38	X39	Y39	Z39	X40	Y40	Z40	X41	Y41	Z41	X42	Y42	Z42	X43	Y43	Z43	X44	Y44	Z44	X45	Y45	Z45	X46	Y46	Z46	X47	Y47	Z47	X48	Y48	Z48	X49	Y49	Z49	X50	Y50	Z50	
1500	7.5000	578.085366	1349.298466	-90.611083	587.597449	1322.778338	-411.325901	559.619403	1401.218575	-256.512371	505.488237	1251.234192	-237.861799	582.108540	1100.536897	31.004922	786.784871	898.331768	-58.807806	587.269162	1063.943899	-533.958922	795.376525	893.721189	-442.263154	-3.061114	1200.907194	-249.703623	152.428354	1191.254573	-399.902168	155.911917	1210.943997	-83.084123	176.735563	1149.999757	-356.503542	189.237571	1159.098067	-117.260964	32.106060	1242.597536	-200.060352	28.073470	1244.096434	-295.896728	88.136875	1094.788380	-56.068437	112.897824	1080.786701	-431.127071	201.449942	959.976739	-43.784299	272.432624	906.319528	-45.450982	306.350591	826.716170	-56.102215	301.604113	929.714123	-50.741721	381.138203	731.708469	-69.802841	367.020119	715.144889	-175.274856	342.259875	604.984234	-36.487327	361.635800	518.649089	-51.948228	335.880407	436.277441	-57.219833	390.820746	521.296979	-80.629684	322.302541	317.490379	-62.150068	336.728061	338.576927	-150.551449	245.144913	285.266441	-107.804722	538.362398	286.231669	-114.516232	455.914114	247.959128	-42.440251	215.030981	998.200325	-429.187486	296.202317	966.912927	-421.142816	315.813097	994.031184	-405.950944	352.263369	897.504752	-419.903417	419.810663	795.906361	-395.389649	416.453621	765.984246	-288.053873	109.137665	523.145977	-399.292247	144.854458	515.345589	-316.102534	48.812748	547.008924	-358.223764	155.205205	362.723512	-422.039277	333.244155	706.875465	-416.827419	283.086801	638.894793	-401.534947	204.077925	599.558768	-403.119853	300.259539	623.686012	-369.228463	236.103717	327.194638	-355.290955	-139.301866	945.312316	-229.958704	17.860566	80.021727	-428.978186	17.578046	80.092174	-31.527927	
1501	7.5050	579.569799	1350.703345	-92.103004	587.007153	1323.368373	-413.086484	560.159938	1401.835246	-258.642460	506.118866	1251.962207	-238.860218	585.386437	1102.611919	30.028872	788.259392	897.945585	-59.327818	587.107965	1064.090030	-534.569046	795.685610	893.860846	-442.056157	-2.144017	1200.956236	-246.263807	151.963501	1192.565727	-398.466835	158.364858	1210.657380	-81.408635	177.232271	1151.583813	-354.581410	190.768081	1157.634897	-115.257489	33.638700	1242.455905	-196.793256	28.703456	1244.582849	-292.763154	89.771947	1092.286090	-54.762394	114.154979	1082.904218	-429.735270	200.317984	955.431417	-42.691267	269.814070	900.084349	-44.388695	301.870119	819.592737	-55.924972	299.610736	922.577705	-50.050851	373.899739	723.669612	-69.660719	355.968372	707.376144	-177.216615	336.163775	596.965005	-35.942518	356.139553	510.715003	-51.456815	331.103421	428.126954	-56.671983	385.274359	513.467324	-80.078463	318.835621	309.245853	-61.440859	333.172263	330.021066	-150.077618	241.629956	277.991041	-107.224149	534.868738	274.976705	-114.667966	452.092605	237.877149	-42.389714	216.900710	1002.298144	-427.674151	298.683675	972.342851	-420.033628	318.115339	1000.237380	-405.988781	356.088367	904.149944	-419.299650	425.210973	803.739942	-395.200874	422.099178	773.556961	-287.645991	113.208754	532.837363	-399.061811	148.099067	524.983799	-316.166052	52.377791	556.543898	-358.230352	159.967277	372.954377	-422.012768	338.566352	715.235314	-416.543190	287.904176	647.766845	-401.370739	208.580857	608.913671	-402.822438	305.011792	632.198388	-369.057226	240.816943	337.912300	-355.229950	-139.174580	945.369001	-229.641438	17.891915	79.961886	-429.024317	17.649285	80.084152	-31.498343	
1502	7.5100	580.875320	1353.033224	-94.225230	586.329718	1324.077617	-414.759813	560.726850	1402.553771	-260.807292	506.742763	1252.882285	-239.401572	588.947293	1104.714615	28.889444	789.149036	896.815670	-59.052121	587.067888	1064.372707	-534.892155	796.068915	894.107355	-441.705146	-1.244492	1201.369269	-242.799851	151.130336	1194.126969	-396.530018	160.783201	1210.791936	-79.822930	177.595167	1153.519274	-352.769450	192.314010	1156.518349	-113.472845	35.161549	1242.877357	-193.356291	29.162887	1245.389612	-289.426353	91.324995	1090.325573	-53.506816	115.302450	1085.687189	-428.378003	198.691759	951.460847	-41.712935	266.716865	894.068663	-44.029656	296.302401	812.876152	-55.682519	297.008683	915.947948	-49.372520	368.084244	716.505361	-68.039483	347.549023	699.747897	-176.792459	329.562621	589.420779	-35.388237	350.298342	503.282892	-50.773520	325.961180	420.545952	-56.124552	379.319799	506.406894	-79.560596	314.817409	301.373298	-60.745882	329.004412	321.985243	-149.535382	237.629260	271.299350	-106.534009	530.810901	264.087214	-114.863578	447.691639	228.243395	-42.324311	218.501078	1006.748020	-426.705193	301.002091	978.342022	-419.671900	320.227265	1006.613822	-406.084378	359.536676	911.081519	-418.821576	430.411018	811.946134	-395.033032	424.970996	782.440114	-287.004019	117.410777	542.295900	-398.917745	152.416230	534.688490	-316.141749	55.853851	565.704653	-358.238312	165.091374	382.839160	-421.944372	343.673227	723.969186	-416.458391	292.639476	656.658368	-401.233083	213.104227	618.181551	-402.596849	309.675791	640.754877	-368.880929	246.091748	348.638520	-355.177535	-139.075482	945.439262	-229.354556	17.971831	80.033465	-428.971147	17.725297	80.095750	-31.442527	
1503	7.5150	582.548988	1354.825685	-96.101698	585.750805	1325.179582	-416.563905	561.285576	1403.528282	-262.971642	507.640642	1253.892889	-240.480124	592.392513	1107.039357	27.843030	790.302316	896.231083	-58.964820	587.041201	1064.647729	-534.254355	796.577947	894.475006	-441.368869	-0.675480	1202.488835	-239.895353	150.356889	1196.269190	-395.146413	163.331764	1211.146505	-78.365554	177.846690	1155.721398	-351.216714	193.714752	1156.066857	-112.045389	36.613001	1243.447840	-189.974353	29.545494	1246.490980	-286.150631	92.736842	1088.948349	-52.273449	116.052910	1089.174885	-427.152222	196.290668	948.127451	-41.017462	262.924966	888.913782	-43.468460	290.479265	806.778858	-55.390437	294.247491	909.941857	-48.719783	359.740151	709.527268	-68.059946	342.425245	691.640217	-173.523710	322.501915	582.324987	-34.779723	343.952622	496.442575	-50.147133	320.403779	413.479349	-55.454705	373.367809	499.807201	-79.323695	310.320540	294.153218	-59.953563	324.406337	314.412124	-148.877297	233.151016	265.156518	-105.780654	526.163885	253.703043	-114.991519	442.809889	218.862197	-42.165104	219.956196	1011.629240	-425.768558	303.005295	984.633101	-419.365884	321.878146	1013.205256	-405.711749	362.633463	918.316661	-418.664997	434.994374	820.271337	-394.407389	430.470553	790.951727	-289.342061	121.782216	551.266458	-398.667687	157.034160	543.991029	-316.109825	59.504856	574.322578	-358.157955	170.837993	392.580957	-421.970274	348.532204	732.765366	-416.274863	296.815024	665.397887	-400.406989	217.508665	627.535709	-402.380665	314.394543	649.382021	-369.019698	252.070834	359.235531	-355.091608	-138.983904	945.502813	-229.080589	18.054506	80.128262	-428.931860	17.810128	80.124192	-31.370321	
1504	7.5200	584.278907	1356.664323	-98.147365	585.086747	1326.418614	-418.170447	561.778434	1404.730274	-265.035974	508.493203	1255.106388	-241.623641	595.799699	1109.489465	26.823165	791.272286	895.848911	-59.067913	587.281578	1065.263161	-533.873846	797.217841	894.894499	-440.996791	-0.240543	1203.672007	-236.631091	149.408732	1198.537987	-393.764036	166.006882	1211.701664	-76.891713	177.670975	1158.101955	-349.787349	195.125788	1155.760784	-110.747293	37.099073	1245.468380	-185.025533	29.855176	1248.071223	-282.795909	94.035094	1088.262601	-51.072309	116.505450	1093.278787	-426.046645	193.687497	945.602501	-39.733056	258.509316	884.619684	-42.734007	283.760792	801.686863	-55.033169	290.423428	904.577517	-48.283286	350.912570	703.112462	-68.067774	332.745102	685.231058	-173.003024	314.944425	575.740850	-34.171536	337.229919	490.073601	-49.517468	314.390053	406.852813	-54.751131	366.309348	493.631359	-78.934891	305.646438	287.856266	-58.964911	319.056172	307.735058	-148.103176	228.139237	259.747144	-104.914417	521.104152	243.160529	-115.021750	437.262868	209.781382	-42.006061	221.036626	1016.841717	-424.969485	304.688067	991.143787	-418.966464	323.122101	1019.911477	-404.988989	365.364391	925.860731	-418.857455	439.409195	828.926102	-394.569172	435.632629	799.479201	-289.613657	126.281515	559.964626	-398.343413	161.795096	553.100631	-315.992106	63.393805	582.733031	-358.138963	177.071081	402.143426	-421.890570	353.120203	741.818628	-416.177453	301.349969	674.371627	-400.515005	221.947929	636.728988	-402.156792	319.058345	658.203167	-369.307790	258.666556	369.653009	-354.955540	-138.898071	945.592825	-228.749930	18.144477	80.288547	-428.863892	17.887637	80.119674	-31.316501	
1505	7.5250	586.076459	1358.545055	-100.261747	584.454769	1328.008628	-419.800350	562.187990	1406.125655	-267.017305	509.560188	1256.386550	-242.858765	599.161072	1112.206235	25.836492	792.194559	895.516281	-59.166337	587.374393	1065.961030	-532.851019	797.846953	895.340771	-440.633079	0.346818	1204.849234	-233.402732	148.017543	1200.902591	-392.131098	168.868347	1212.453546	-75.357367	177.210921	1160.594688	-348.584693	196.554354	1155.637198	-109.410087	37.955511	1246.647466	-181.116086	30.148228	1249.617804	-279.318329	95.016577	1088.136943	-49.920935	116.614386	1097.734171	-424.869998	190.554585	943.282499	-38.901604	253.757879	880.797480	-42.129099	276.749612	797.218472	-54.635161	285.440448	899.642241	-48.393392	341.756147	697.227528	-67.933274	321.991449	679.264278	-172.974612	306.999527	569.664854	-33.454416	330.425778	484.212230	-48.445308	307.848092	400.827194	-53.928559	358.375924	488.181988	-78.722102	299.762921	280.935207	-58.517028	313.896897	301.190789	-147.364122	222.990570	254.709956	-104.412777	515.622097	233.074758	-115.149944	431.276479	201.143387	-41.897524	222.076604	1022.429808	-424.223125	305.976227	997.950488	-418.408257	323.899359	1026.743942	-403.918169	367.770921	933.709230	-418.985018	443.489191	837.791671	-394.898326	440.524341	808.144624	-289.870901	130.997827	568.283514	-398.013373	166.747084	561.720317	-315.819688	67.488560	590.096143	-357.678731	183.776439	411.372259	-421.829448	357.461331	750.942001	-416.201733	305.736257	683.396840	-400.580818	226.387507	645.677817	-401.900094	323.828444	666.831597	-369.718614	265.914466	380.159740	-354.754278	-138.608673	945.698929	-228.620838	18.271383	80.614342	-428.784467	17.983825	80.192275	-31.228356	
1506	7.5300	587.832808	1360.317276	-102.600989	583.736387	1329.733000	-421.315132	562.514612	1407.791315	-268.903879	510.409872	1257.935655	-244.330854	602.287265	1114.795320	24.703631	792.965341	895.289712	-59.326553	587.847527	1067.032036	-532.004410	798.576481	895.887804	-440.363298	0.796924	1206.219666	-230.244410	146.728029	1203.313821	-390.538536	171.819219	1213.470940	-73.888478	176.607505	1163.142029	-347.350743	198.068553	1155.648418	-108.148288	40.351178	1246.516018	-179.319068	30.416840	1251.132568	-275.796172	95.746652	1088.577362	-48.885188	116.379376	1102.518159	-423.800787	187.382659	941.656908	-38.042064	248.671837	877.489598	-41.486601	269.755783	793.449926	-54.095767	280.567572	895.659644	-48.053570	332.214470	691.802081	-67.544533	310.446386	674.554231	-172.804481	298.287457	563.992843	-32.711432	322.654335	479.008325	-47.742588	300.873961	395.305383	-53.213041	350.419920	483.180523	-78.110617	293.794884	275.146910	-57.898662	307.810556	295.668211	-146.695577	217.352691	250.377287	-104.070213	509.599173	223.270979	-115.094146	424.705661	193.036639	-41.736092	222.696138	1028.057584	-423.522042	307.121939	1005.147688	-418.169445	324.305896	1034.045411	-402.540440	369.877331	941.700537	-419.060965	447.275113	846.688729	-395.241291	445.081389	816.805403	-290.221928	136.048878	576.122148	-397.958934	171.758246	570.196427	-315.669555	71.998399	596.983485	-357.119050	191.107417	420.578880	-422.209791	361.500787	760.211149	-416.316671	310.179623	692.295848	-400.764638	230.885185	654.444212	-401.729863	328.755978	675.192857	-371.307949	274.588772	390.196098	-354.164743	-138.471855	945.863143	-228.265416	18.351788	80.733017	-428.728840	18.073244	80.213396	-31.198972	
